<svg width="199" height="232" viewBox="0 0 199 232" fill="none" xmlns="http://www.w3.org/2000/svg">
<path fill-rule="evenodd" clip-rule="evenodd" d="M189.12 65.2204V159.428H174.611V65.2204H145.594C139.822 65.2204 134.287 62.9299 130.205 58.8529C126.124 54.7758 123.831 49.2461 123.831 43.4803V14.4934H44.0339C40.186 14.4934 36.4957 16.0204 33.7748 18.7384C31.0539 21.4565 29.5253 25.143 29.5253 28.9868V159.428H15.0167V28.9868C15.0167 21.2991 18.0739 13.9261 23.5157 8.49005C28.9574 3.05396 36.3381 0 44.0339 0L123.831 0L189.12 65.2204ZM46.2247 221.604C45.2619 219.563 44.7145 217.351 44.6142 215.097H55.6988C55.9003 216.228 56.3327 217.307 56.9692 218.264C57.6057 219.221 58.4326 220.038 59.3985 220.662C60.4141 221.373 61.6328 221.923 63.0256 222.315C64.4039 222.72 65.9418 222.909 67.6538 222.909C70.0333 222.909 72.0209 222.576 73.6459 221.894C75.1255 221.342 76.4114 220.37 77.3456 219.097C78.1697 217.852 78.5948 216.386 78.5643 214.894C78.607 213.987 78.4287 213.083 78.0445 212.26C77.6604 211.437 77.082 210.72 76.359 210.169C74.8936 209.01 72.6448 208.082 69.6415 207.372L60.6752 205.299C57.9116 204.715 55.2673 203.666 52.8551 202.198C50.7228 200.893 48.9637 199.061 47.7481 196.879C46.5139 194.541 45.8996 191.926 45.9635 189.284C45.9635 185.748 46.8921 182.661 48.7202 180.023C50.5773 177.4 53.1308 175.356 56.3807 173.907C59.6451 172.457 63.4028 171.747 67.6538 171.747C72.0645 171.747 75.8367 172.472 78.956 173.95C82.1044 175.428 84.5273 177.414 86.2103 179.892C87.9514 182.356 88.9089 185.096 89.112 188.096H78.2306C77.9822 186.72 77.3825 185.432 76.4896 184.356C75.5358 183.2 74.3093 182.299 72.9205 181.733C71.2178 181.04 69.3904 180.704 67.5523 180.747C64.4184 180.747 61.9375 181.472 60.1239 182.95C59.2709 183.603 58.5834 184.447 58.1172 185.413C57.6509 186.38 57.4188 187.443 57.4398 188.516C57.4398 190.27 58.1362 191.705 59.529 192.864C61.2624 194.147 63.2679 195.015 65.3905 195.4L74.4003 197.473C77.5487 198.198 80.2908 199.212 82.6122 200.531C84.8508 201.753 86.7275 203.542 88.0529 205.72C89.3587 207.865 90.0116 210.575 90.0116 213.836C90.0116 217.416 89.0975 220.59 87.284 223.344C85.3526 226.18 82.6348 228.391 79.4638 229.706C76.0688 231.228 71.9194 231.996 67.0155 231.996C63.3303 231.996 60.1094 231.561 57.3673 230.692C54.8406 229.934 52.4853 228.694 50.4322 227.039C48.6608 225.545 47.2267 223.693 46.2247 221.604V221.604ZM1.19005 221.126C0.389506 218.965 -0.0135371 216.677 0.00034685 214.372H11.0849C11.1152 215.745 11.4839 217.089 12.1585 218.285C12.8266 219.423 13.7934 220.357 14.9544 220.985C16.1154 221.614 17.4264 221.913 18.7454 221.851C21.5021 221.851 23.5333 221.054 24.868 219.474C26.1883 217.88 26.8557 215.633 26.8557 212.72V172.936H38.332V212.43C38.332 218.807 36.6055 223.648 33.1524 226.996C29.7139 230.329 24.9551 231.996 18.8615 231.996C16.0544 232.047 13.2617 231.585 10.6206 230.634C8.39871 229.786 6.38498 228.471 4.71563 226.779C3.16856 225.153 1.969 223.23 1.19005 221.126V221.126ZM133.088 198.154V205.72C133.088 209.43 132.522 212.532 131.39 215.01C130.426 217.302 128.8 219.255 126.718 220.619C124.663 221.858 122.299 222.491 119.899 222.445C117.5 222.486 115.137 221.854 113.08 220.619C111.014 219.246 109.4 217.295 108.437 215.01C107.219 212.068 106.64 208.902 106.74 205.72V198.154C106.74 194.415 107.306 191.328 108.437 188.864C109.4 186.579 111.014 184.628 113.08 183.255C115.128 181.994 117.494 181.345 119.899 181.385C122.467 181.385 124.731 182.008 126.718 183.255C128.8 184.618 130.426 186.571 131.39 188.864C132.522 191.328 133.088 194.415 133.088 198.154ZM144.738 205.676V198.241C144.738 192.777 143.737 188.081 141.764 184.139C139.897 180.303 136.913 177.12 133.204 175.008C129.533 172.892 125.093 171.82 119.914 171.82C114.749 171.82 110.309 172.892 106.566 175.008C102.855 177.101 99.8737 180.277 98.0203 184.11C96.0326 188.038 95.046 192.748 95.046 198.241V205.676C95.046 211.111 96.0326 215.807 98.0203 219.778C100.008 223.706 102.852 226.735 106.566 228.851C110.309 230.953 114.749 231.996 119.914 231.996C125.093 231.996 129.533 230.953 133.218 228.851C136.932 226.735 139.776 223.706 141.764 219.778C143.737 215.807 144.738 211.111 144.738 205.676V205.676ZM163.454 192.125V230.895H152.631V172.936H162.235L187.654 211.488H188.119V172.936H199V230.909H189.482L163.933 192.125H163.469H163.454Z" fill="#2B2D42"/>
</svg>
